<?xml version="1.0" standalone="no"?>
<!DOCTYPE svg PUBLIC "-//W3C//DTD SVG 20010904//EN"
 "http://www.w3.org/TR/2001/REC-SVG-20010904/DTD/svg10.dtd">
<svg version="1.0" xmlns="http://www.w3.org/2000/svg"
 width="512.000000pt" height="512.000000pt" viewBox="0 0 512.000000 512.000000"
 preserveAspectRatio="xMidYMid meet">

<g transform="translate(0.000000,512.000000) scale(0.100000,-0.100000)"
fill="#000000" stroke="none">
<path d="M1366 5104 c-133 -32 -278 -146 -343 -270 -68 -127 -63 46 -61 -2483
l3 -2289 24 -26 c27 -28 76 -42 113 -31 12 4 346 329 741 723 l717 717 713
-712 c427 -427 724 -716 742 -723 41 -15 87 -5 116 26 l24 26 3 2289 c2 2529
7 2356 -61 2483 -41 78 -145 182 -223 223 -122 65 -73 63 -1319 62 -940 -1
-1140 -3 -1189 -15z m2384 -225 c80 -37 125 -81 162 -157 l33 -67 3 -2145 2
-2145 -667 666 c-488 487 -675 668 -695 671 -16 3 -40 3 -55 0 -21 -3 -208
-184 -696 -671 l-667 -666 2 2145 3 2145 26 55 c14 31 40 72 57 91 39 44 119
88 180 99 26 4 544 7 1152 6 l1105 -1 55 -26z"/>
</g>
</svg>
