<?xml version="1.0" standalone="no"?>
<!DOCTYPE svg PUBLIC "-//W3C//DTD SVG 20010904//EN"
 "http://www.w3.org/TR/2001/REC-SVG-20010904/DTD/svg10.dtd">
<svg version="1.0" xmlns="http://www.w3.org/2000/svg"
 width="512.000000pt" height="512.000000pt" viewBox="0 0 512.000000 512.000000"
 preserveAspectRatio="xMidYMid meet">

<g transform="translate(0.000000,512.000000) scale(0.100000,-0.100000)"
fill="#000000" stroke="none">
<path d="M1215 4984 c-531 -89 -963 -456 -1139 -966 -52 -151 -69 -268 -70
-463 0 -144 4 -203 22 -297 99 -527 412 -1085 962 -1713 365 -418 941 -950
1436 -1326 l134 -102 134 102 c495 376 1071 908 1436 1326 550 628 863 1186
962 1713 31 167 31 432 -1 582 -109 513 -470 924 -951 1084 -162 54 -239 67
-420 73 -139 4 -183 2 -280 -16 -310 -55 -567 -188 -782 -403 l-98 -98 -98 98
c-213 213 -472 347 -777 402 -128 24 -346 25 -470 4z m438 -341 c274 -52 521
-211 691 -444 23 -30 79 -123 125 -207 47 -84 88 -152 91 -152 3 0 44 68 91
152 128 231 214 337 362 449 218 164 482 241 755 218 276 -23 512 -137 708
-340 127 -133 222 -302 271 -486 24 -88 27 -116 27 -278 0 -163 -3 -191 -28
-300 -105 -447 -394 -942 -865 -1480 -326 -373 -749 -775 -1196 -1135 l-125
-101 -125 101 c-325 262 -717 620 -952 868 -633 668 -987 1227 -1109 1747 -25
109 -28 137 -28 300 0 162 3 190 27 278 92 343 335 620 657 750 201 81 411
101 623 60z"/>
</g>
</svg>
