<?xml version="1.0" standalone="no"?>
<!DOCTYPE svg PUBLIC "-//W3C//DTD SVG 20010904//EN"
 "http://www.w3.org/TR/2001/REC-SVG-20010904/DTD/svg10.dtd">
<svg version="1.0" xmlns="http://www.w3.org/2000/svg"
 width="512.000000pt" height="512.000000pt" viewBox="0 0 512.000000 512.000000"
 preserveAspectRatio="xMidYMid meet">

<g transform="translate(0.000000,512.000000) scale(0.100000,-0.100000)"
fill="#000000" stroke="none">
<path d="M575 3273 c-89 -19 -212 -77 -293 -138 -115 -87 -206 -221 -253 -375
-34 -108 -34 -292 0 -400 66 -213 199 -368 396 -461 395 -186 863 19 1003 438
23 70 26 93 26 223 0 130 -3 153 -26 223 -120 359 -486 569 -853 490z"/>
<path d="M2405 3273 c-89 -18 -234 -88 -307 -147 -161 -129 -268 -356 -268
-566 0 -210 107 -437 268 -566 122 -98 307 -164 462 -164 210 0 437 107 566
268 61 76 129 219 148 314 33 159 13 313 -59 463 -78 162 -178 262 -340 340
-149 72 -312 92 -470 58z"/>
<path d="M4236 3273 c-254 -54 -460 -240 -544 -490 -23 -70 -26 -93 -26 -223
0 -130 3 -153 26 -223 140 -419 608 -624 1003 -438 197 93 330 248 396 461 20
62 24 97 24 200 0 141 -20 223 -81 340 -150 286 -481 441 -798 373z"/>
</g>
</svg>
