<?xml version="1.0" standalone="no"?>
<!DOCTYPE svg PUBLIC "-//W3C//DTD SVG 20010904//EN"
 "http://www.w3.org/TR/2001/REC-SVG-20010904/DTD/svg10.dtd">
<svg version="1.0" xmlns="http://www.w3.org/2000/svg"
 width="512.000000pt" height="512.000000pt" viewBox="0 0 512.000000 512.000000"
 preserveAspectRatio="xMidYMid meet">

<g transform="translate(0.000000,512.000000) scale(0.100000,-0.100000)"
fill="#000000" stroke="none">
<path d="M2515 4512 c-34 -12 -421 -287 -1205 -856 -635 -461 -1174 -854
-1198 -873 -119 -97 -143 -266 -54 -389 20 -27 388 -300 1211 -898 651 -472
1201 -868 1224 -879 94 -46 240 -16 313 65 77 85 74 55 74 691 0 312 3 567 8
567 4 0 410 -293 902 -651 492 -358 915 -661 940 -672 32 -15 64 -21 110 -21
108 1 193 52 246 146 l29 53 0 1765 0 1765 -31 55 c-74 131 -237 185 -364 120
-20 -10 -440 -312 -933 -669 -493 -358 -898 -651 -901 -651 -3 0 -6 255 -6
568 0 549 -1 568 -21 612 -59 130 -215 199 -344 152z"/>
</g>
</svg>
