<?xml version="1.0" standalone="no"?>
<!DOCTYPE svg PUBLIC "-//W3C//DTD SVG 20010904//EN"
 "http://www.w3.org/TR/2001/REC-SVG-20010904/DTD/svg10.dtd">
<svg version="1.0" xmlns="http://www.w3.org/2000/svg"
 width="512.000000pt" height="512.000000pt" viewBox="0 0 512.000000 512.000000"
 preserveAspectRatio="xMidYMid meet">

<g transform="translate(0.000000,512.000000) scale(0.100000,-0.100000)"
fill="#000000" stroke="none">
<path d="M2020 5103 c-761 -78 -1427 -531 -1772 -1207 -170 -335 -243 -638
-242 -1021 0 -238 13 -346 70 -565 199 -767 802 -1375 1573 -1586 347 -95 736
-102 1094 -18 315 73 628 225 877 425 91 73 274 255 358 355 184 222 353 566
425 865 81 338 84 709 6 1039 -54 230 -171 505 -299 700 -369 563 -945 923
-1610 1006 -102 13 -385 17 -480 7z m464 -268 c803 -105 1463 -692 1662 -1478
42 -166 56 -288 56 -477 0 -308 -58 -568 -191 -853 -149 -318 -426 -628 -730
-817 -237 -147 -505 -246 -772 -285 -135 -19 -410 -19 -546 0 -573 81 -1080
409 -1396 902 -290 453 -381 1037 -241 1552 96 352 261 637 514 891 260 260
574 437 925 524 225 55 493 71 719 41z"/>
<path d="M3980 1254 c-13 -20 -50 -62 -82 -94 -32 -31 -58 -61 -58 -66 0 -11
1046 -1055 1080 -1078 36 -23 111 -21 144 5 53 41 69 105 42 157 -8 15 -259
271 -558 569 l-543 543 -25 -36z"/>
</g>
</svg>
